<svg width="200" height="50" viewBox="0 0 200 50" fill="none" xmlns="http://www.w3.org/2000/svg">
  <rect x="0" y="10" width="30" height="30" rx="6" fill="#0080FF"/>
  <rect x="5" y="15" width="20" height="20" rx="2" fill="white"/>
  <rect x="10" y="20" width="10" height="10" rx="1" fill="#0080FF"/>
  <path d="M45 20H48V35H45V20Z" fill="#333333"/>
  <path d="M50 20H53C56.3137 20 59 22.6863 59 26V29C59 32.3137 56.3137 35 53 35H50V20Z" fill="#333333"/>
  <path d="M50 23V32H53C54.6569 32 56 30.6569 56 29V26C56 24.3431 54.6569 23 53 23H50Z" fill="white"/>
  <path d="M62 20H70C73.3137 20 76 22.6863 76 26V29C76 32.3137 73.3137 35 70 35H62V20Z" fill="#333333"/>
  <path d="M65 23V32H70C71.6569 32 73 30.6569 73 29V26C73 24.3431 71.6569 23 70 23H65Z" fill="white"/>
  <path d="M79 20H82C85.3137 20 88 22.6863 88 26V29C88 32.3137 85.3137 35 82 35H79V20Z" fill="#333333"/>
  <path d="M79 23V32H82C83.6569 32 85 30.6569 85 29V26C85 24.3431 83.6569 23 82 23H79Z" fill="white"/>
  <path d="M90 20H98C101.314 20 104 22.6863 104 26V29C104 32.3137 101.314 35 98 35H90V20Z" fill="#333333"/>
  <path d="M93 23V32H98C99.6569 32 101 30.6569 101 29V26C101 24.3431 99.6569 23 98 23H93Z" fill="white"/>
  <path d="M107 20H110V35H107V20Z" fill="#333333"/>
  <path d="M113 20H121C124.314 20 127 22.6863 127 26V29C127 32.3137 124.314 35 121 35H113V20Z" fill="#333333"/>
  <path d="M116 23V32H121C122.657 32 124 30.6569 124 29V26C124 24.3431 122.657 23 121 23H116Z" fill="white"/>
  <path d="M130 20H138C141.314 20 144 22.6863 144 26V29C144 32.3137 141.314 35 138 35H130V20Z" fill="#333333"/>
  <path d="M133 23V32H138C139.657 32 141 30.6569 141 29V26C141 24.3431 139.657 23 138 23H133Z" fill="white"/>
  <path d="M147 20H155C158.314 20 161 22.6863 161 26V29C161 32.3137 158.314 35 155 35H147V20Z" fill="#333333"/>
  <path d="M150 23V32H155C156.657 32 158 30.6569 158 29V26C158 24.3431 156.657 23 155 23H150Z" fill="white"/>
  <path d="M164 20H172C175.314 20 178 22.6863 178 26V29C178 32.3137 175.314 35 172 35H164V20Z" fill="#333333"/>
  <path d="M167 23V32H172C173.657 32 175 30.6569 175 29V26C175 24.3431 173.657 23 172 23H167Z" fill="white"/>
  <path d="M181 20H189C192.314 20 195 22.6863 195 26V29C195 32.3137 192.314 35 189 35H181V20Z" fill="#333333"/>
  <path d="M184 23V32H189C190.657 32 192 30.6569 192 29V26C192 24.3431 190.657 23 189 23H184Z" fill="white"/>
</svg> 